# xmcd CD database file
#
# Track frame offsets:
#	150
#	20990
#	43233
#	65169
#	86599
#	109469
#	132737
#	157480
#	178454
#	202449
#	219833
#	251598
#
# Disc length: 3589 seconds
#
# Revision: 1
# Processed by: cddbd v1.5.1PL0 Copyright (c) Steve Scherf et al.
# Submitted via: CDex 1.50
#
DISCID=d20e030c
DTITLE=????? - SMILE
DYEAR=2003
DGENRE=JPop
TTITLE0=Thakyou 
TTITLE1=???????
TTITLE2=???
TTITLE3=???
TTITLE4=??
TTITLE5=Go!Go!!
TTITLE6=????
TTITLE7=????
TTITLE8=????????
TTITLE9=????
TTITLE10=???????
TTITLE11=Theme Of Family Sugar
EXTD=YEAR: 2003
EXTT0=
EXTT1=
EXTT2=
EXTT3=
EXTT4=
EXTT5=
EXTT6=
EXTT7=
EXTT8=
EXTT9=
EXTT10=
EXTT11=
PLAYORDER=
